<svg xmlns="http://www.w3.org/2000/svg" xmlns:xlink="http://www.w3.org/1999/xlink" width="220" height="220" viewBox="0 0 220 220">
  <defs>
    <clipPath id="clip-path">
      <rect id="rectangle-2" width="220" height="220" transform="translate(203.27 802.33)" fill="none"/>
    </clipPath>
  </defs>
  <g id="Mask_Group_3" data-name="Mask Group 3" transform="translate(-203.27 -802.33)" clip-path="url(#clip-path)">
    <g id="noun_around_2829917" transform="translate(203.27 861.82)">
      <g id="Group_166" data-name="Group 166">
        <path id="Path_297" data-name="Path 297" d="M219.975,100.124v-.083c0-.117-.209-.167-.4-.167s-.4.054-.4.167v.083a.291.291,0,0,0,.083.2l.209.2a.054.054,0,0,1,.017.042v.267a.032.032,0,0,0,.025.033l.121.038a.033.033,0,0,0,.042-.033v-.3a.074.074,0,0,1,.017-.042l.213-.209A.291.291,0,0,0,219.975,100.124Zm-.4,0c-.2,0-.309-.054-.313-.075h0c0-.021.113-.075.313-.075s.3.054.313.075C219.875,100.065,219.771,100.119,219.57,100.119Z"/>
        <path id="Path_298" data-name="Path 298" d="M219.779,100.549a.042.042,0,1,0,0,.083h.179a.042.042,0,1,0,0-.083Z"/>
        <path id="Path_299" data-name="Path 299" d="M219.958,100.691h-.179a.042.042,0,0,0,0,.083h.179a.042.042,0,0,0,0-.083Z"/>
        <path id="Path_300" data-name="Path 300" d="M219.958,100.829h-.179a.042.042,0,0,0,0,.083h.179a.039.039,0,0,0,.042-.042A.042.042,0,0,0,219.958,100.829Z"/>
      </g>
      <g id="Group_167" data-name="Group 167" transform="translate(51.286 -72.568) rotate(45)">
        <path id="Path_301" data-name="Path 301" d="M1.41,15.813a14.4,14.4,0,1,0,14.4-14.4A14.456,14.456,0,0,0,1.41,15.813Zm14.4-9.246a9.246,9.246,0,1,1-9.246,9.246A9.239,9.239,0,0,1,15.813,6.567Z" transform="translate(26.543 26.458)" fill="#fcbf49"/>
        <path id="Path_302" data-name="Path 302" d="M3,36.4a2.58,2.58,0,0,0,2.578-2.578V23.956A10.131,10.131,0,0,1,15.712,13.821h10.4L21.935,18a2.631,2.631,0,0,0,0,3.645,2.409,2.409,0,0,0,1.778.711,2.643,2.643,0,0,0,1.778-.711l8.624-8.624a2.578,2.578,0,0,0,0-3.556L25.491.841a2.631,2.631,0,0,0-3.645,0,2.631,2.631,0,0,0,0,3.645L26.2,8.842H15.712a15.253,15.253,0,0,0-15.2,15.2V34A2.468,2.468,0,0,0,3,36.4Z" transform="translate(8.24 0)" fill="#dd5456"/>
        <path id="Path_303" data-name="Path 303" d="M33.909,31.323H24.041A10.131,10.131,0,0,1,13.906,21.188v-10.4l4.179,4.179a2.409,2.409,0,0,0,1.778.711,2.534,2.534,0,0,0,1.778-4.356L13.106,2.785a2.631,2.631,0,0,0-3.645,0L.837,11.409a2.631,2.631,0,0,0,0,3.645,2.549,2.549,0,0,0,3.645,0L8.838,10.7v10.58a15.253,15.253,0,0,0,15.2,15.2H34A2.58,2.58,0,0,0,36.577,33.9,2.718,2.718,0,0,0,33.909,31.323Z" transform="translate(0 39.486)" fill="#58989d"/>
        <path id="Path_304" data-name="Path 304" d="M33.88,2.361A2.58,2.58,0,0,0,31.3,4.939V14.9A10.112,10.112,0,0,1,21.167,24.943h-10.4l4.179-4.179A2.577,2.577,0,1,0,11.3,17.119L2.764,25.743a2.643,2.643,0,0,0-.711,1.778A2.482,2.482,0,0,0,2.764,29.3l8.624,8.624a2.409,2.409,0,0,0,1.778.711,2.534,2.534,0,0,0,1.778-4.356l-4.356-4.356h10.58a15.253,15.253,0,0,0,15.2-15.2V4.939A2.506,2.506,0,0,0,33.88,2.361Z" transform="translate(39.592 45.777)" fill="#dd5456"/>
        <path id="Path_305" data-name="Path 305" d="M38.012,21.935a2.631,2.631,0,0,0-3.645,0l-4.356,4.356V15.712a15.253,15.253,0,0,0-15.2-15.2H4.939a2.578,2.578,0,1,0,0,5.156H14.9A9.979,9.979,0,0,1,24.943,15.712v10.4l-4.179-4.179a2.577,2.577,0,1,0-3.645,3.645L25.743,34.2a2.409,2.409,0,0,0,1.778.711A2.643,2.643,0,0,0,29.3,34.2l8.624-8.624A2.552,2.552,0,0,0,38.012,21.935Z" transform="translate(45.862 8.156)" fill="#58989d"/>
      </g>
    </g>
  </g>
  <g id="Group_165" data-name="Group 165" transform="translate(-156.014 -775.414)">
    <path id="Path_267" data-name="Path 267" d="M37.292,18.231a1.731,1.731,0,0,0,1.579,1.87c3.435.287,5.475,1.025,6.416,2.313,1.486,2.036.907,6.309-.422,12.1-.765,3.328-2.178,5.627-4.2,6.835a7.928,7.928,0,0,1-5.61.793,1.732,1.732,0,0,0-.949,3.331,11.35,11.35,0,0,0,8.279-1.118c2.891-1.7,4.858-4.754,5.849-9.065,1.624-7.081,2.119-11.794-.156-14.911-1.6-2.188-4.349-3.338-8.923-3.722A1.754,1.754,0,0,0,37.292,18.231Z" transform="translate(292.106 847.242)" fill="#58989d"/>
    <path id="Path_268" data-name="Path 268" d="M100.466,112.561c-.6-.18-1.108-.332-1.513-.467-2.486-.828-5.6-6.988-7.341-11.995,2.4-2.708,4.481-5.44,6.205-7.711L99.258,90.5c5.3-6.846,6.936-29.523,7.338-37,2.652-2.524,7.247-9.145,6.752-24.516-.509-15.8-11.486-21-17.878-21.677A67.1,67.1,0,0,0,65.631.047C53.813.047,43.823,3.558,38.22,9.684,24.536,24.643,30.294,51.4,30.547,52.535a3.577,3.577,0,0,0,2.434,2.521c.35,5.731,1.236,16.531,3.227,25.067a5.165,5.165,0,0,1,2.573,2.857c.537.526,2.438,1.475,6.354,2.389-2.8-5.173-4.6-20.34-5.25-30.874A113.5,113.5,0,0,0,54.9,49.879a21.526,21.526,0,0,1-1.524,2.961,3.463,3.463,0,0,0,4.356,5C71.56,51.614,85.223,45.592,88.4,44.193c9.391.291,11.074,6.364,11.334,7.76-.519,11.095-2.576,29.939-5.956,34.3L92.294,88.2c-4.959,6.534-13.255,17.466-22.556,17.466-5.506,0-10.658-3.84-14.976-8.324a94.523,94.523,0,0,1-10.468-1.548c1.1,1.4,2.282,2.843,3.574,4.3-1.738,5.007-4.855,11.167-7.341,11.995-.405.135-.914.287-1.513.467-8.657,2.614-34.994,10.568-34.994,42.983a3.463,3.463,0,1,0,6.925,0c0-27.269,21.846-33.865,30.07-36.352.672-.2,1.247-.377,1.7-.53C47.687,117,51.23,110.4,53.249,105.463c4.671,4.034,10.194,7.123,16.486,7.123s11.815-3.092,16.486-7.123C88.24,110.4,91.782,117,96.754,118.656c.454.152,1.028.325,1.7.53,8.224,2.483,30.07,9.083,30.07,36.352a3.463,3.463,0,1,0,6.925,0C135.461,123.13,109.123,115.172,100.466,112.561ZM87.7,37.261a3.5,3.5,0,0,0-1.392.291s-10.894,4.785-23.7,10.513a7.418,7.418,0,0,0-1.118-5.43,3.46,3.46,0,0,0-4.131-1.16c-3.927,1.634-14.138,5.516-20.558,6.572-1-6.867-2.372-23.955,6.538-33.692C47.57,9.732,55.9,6.972,65.638,6.972A60.06,60.06,0,0,1,92.9,13.77a3.444,3.444,0,0,0,1.43.388c.474.024,11.638.751,12.1,15.046.256,7.916-.987,12.816-2.278,15.728C101.464,40.973,96.4,37.261,87.7,37.261Z" transform="translate(221.084 806.359)" fill="#1d779a"/>
    <path id="Path_269" data-name="Path 269" d="M15.538,44.351a11.13,11.13,0,0,0,6.822,1.382c3.7,5.53,18.47,7.365,31.244,7.892a5.845,5.845,0,1,0,.09-3.463C37.232,49.472,26.02,46.823,25,43.323a1.741,1.741,0,0,0-2.13-1.184,7.928,7.928,0,0,1-5.61-.793c-2.022-1.208-3.435-3.508-4.2-6.835-1.33-5.786-1.911-10.059-.426-12.1.942-1.288,2.981-2.026,6.416-2.313a1.731,1.731,0,0,0-.291-3.449c-4.571.384-7.324,1.534-8.923,3.722C7.567,23.5,8.062,28.2,9.69,35.286,10.68,39.6,12.647,42.647,15.538,44.351Zm43.665,5.3a2.384,2.384,0,1,1-2.382,2.386A2.387,2.387,0,0,1,59.2,49.656Z" transform="translate(231.626 847.242)" fill="#58989d"/>
  </g>
</svg>
