<svg xmlns="http://www.w3.org/2000/svg" width="185.05" height="157.933" viewBox="0 0 185.05 157.933">
  <g id="Group_165" data-name="Group 165" transform="translate(-1648.958 -1097.678)">
    <g id="noun_iMac_2936661" transform="translate(1648.958 1097.678)">
      <g id="Group_158" data-name="Group 158" transform="translate(0 0)">
        <path id="Path_270" data-name="Path 270" d="M185.95,147.353V64.586A19.992,19.992,0,0,0,166.11,44.5H20.74A19.945,19.945,0,0,0,.9,64.586v92.645a19.992,19.992,0,0,0,19.84,20.086H82.907c8.995,4.59,15.487,10.759,19.4,18.507H73.658l1.269-8.556a3.263,3.263,0,1,0-6.456-.955l-1.415,9.51H58.243a3.305,3.305,0,0,0,0,6.61h70.364a3.305,3.305,0,0,0,0-6.61h-8.777l-2.72-18.507h49a20,20,0,0,0,19.441-15.973,3.334,3.334,0,0,0-2.539-3.929,3.3,3.3,0,0,0-3.881,2.57,13.43,13.43,0,0,1-13.057,10.722H20.74A13.4,13.4,0,0,1,7.429,157.231v-6.573H182.685A3.271,3.271,0,0,0,185.95,147.353Z" transform="translate(-0.9 -44.5)" fill="#1d779a"/>
        <path id="Path_286" data-name="Path 286" d="M17.044,0H155.95a16.934,16.934,0,0,1,17.044,16.823V76.543A16.934,16.934,0,0,1,155.95,93.366H17.044A16.934,16.934,0,0,1,0,76.543V16.823A16.934,16.934,0,0,1,17.044,0Z" transform="translate(6.323 6.037)" fill="#f0f0f0"/>
      </g>
      <g id="noun_Layers_3376887" transform="translate(15.624 30.607)">
        <g id="Group_159" data-name="Group 159">
          <path id="Path_271" data-name="Path 271" d="M77.429,58.971l3.947,2.306L53.667,77.46,25.958,61.277,29.9,58.971,53.667,72.85Zm0-8.068,3.947,2.306L53.667,69.393,25.958,53.209,29.9,50.9,53.667,64.783ZM53.667,28.958,81.376,45.142,53.667,61.325,25.958,45.142Z" transform="translate(-25.958 -28.958)" fill="#58989d" fill-rule="evenodd"/>
        </g>
      </g>
    </g>
    <g id="noun_analytics_2475082" transform="translate(1743.575 1115.846)">
      <path id="Path_272" data-name="Path 272" d="M71.956,38H66.027a1.185,1.185,0,0,0-1.186,1.186V46.3H60.1a1.185,1.185,0,0,0-1.186,1.186v16.6H54.17V51.043a1.185,1.185,0,0,0-1.186-1.186H47.056a1.185,1.185,0,0,0-1.186,1.186v7.114H41.128a1.185,1.185,0,0,0-1.186,1.186v4.743H35.2V42.743a1.185,1.185,0,0,0-1.186-1.186H28.085A1.185,1.185,0,0,0,26.9,42.743v8.3H22.157a1.185,1.185,0,0,0-1.186,1.186V64.085H16.228v-16.6A1.185,1.185,0,0,0,15.043,46.3H9.114a1.185,1.185,0,0,0-1.186,1.186V54.6H3.186A1.185,1.185,0,0,0,2,55.785V66.457H73.141V39.186A1.185,1.185,0,0,0,71.956,38ZM4.371,56.971H7.928v7.114H4.371ZM10.3,64.085V48.671h3.557V64.085ZM23.342,53.414H26.9V64.085H23.342Zm5.928,10.671V43.928h3.557V64.085Zm13.043-3.557h3.557v3.557H42.313Zm5.928,3.557V52.228H51.8V64.085ZM61.285,48.671h3.557V64.085H61.285Zm5.928,15.414V40.371H70.77V64.085Z" transform="translate(-1.259 4.685)" fill="#fcbf49"/>
      <path id="Path_273" data-name="Path 273" d="M61.68,27.42,49.124,42.261l-16.9-4.507L20.512,30.727a1.188,1.188,0,0,0-1.352.091L1.375,45.046,2.857,46.9,20,33.186l11.149,6.69a1.19,1.19,0,0,0,.3.129l17.785,4.743a1.183,1.183,0,0,0,1.211-.379L62.917,29.632l9.858,4.381.963-2.166L63.066,27.1A1.179,1.179,0,0,0,61.68,27.42Z" transform="translate(-1.375 2.642)" fill="#f0f0f0"/>
      <path id="Path_274" data-name="Path 274" d="M11.12,29.513a14.213,14.213,0,0,0,14.91-2.991l3.588,3.588a1.18,1.18,0,0,0,.838.347H44.685V28.085H30.947L27.6,24.734a14.006,14.006,0,0,0,2.587-5.713,14.249,14.249,0,0,0-.234-6.539l8.111-8.111H58.913V2H37.571a1.18,1.18,0,0,0-.838.347l-7.7,7.7A14.23,14.23,0,0,0,3.087,21.7,14.356,14.356,0,0,0,11.12,29.513Zm-5.33-7.654L9.109,20.48a8.3,8.3,0,0,0,3.07,2.983l-1.292,3.352A12,12,0,0,1,5.791,21.859ZM10.3,16.228a5.928,5.928,0,1,1,11.857,0,5.578,5.578,0,0,1-.117,1.155l1.161.244L22.037,17.4a5.922,5.922,0,0,1-5.809,4.758,5.943,5.943,0,0,1-5.474-3.646l-1.094.456,1.092-.461A5.818,5.818,0,0,1,10.3,16.228Zm5.928,11.857a11.87,11.87,0,0,1-3.128-.422l1.291-3.35a8.188,8.188,0,0,0,1.837.215A8.294,8.294,0,0,0,24.031,19l3.521.7a11.683,11.683,0,0,1-2.422,4.349A11.844,11.844,0,0,1,16.228,28.085ZM27.494,12.509v0a11.754,11.754,0,0,1,.592,3.717q0,.582-.056,1.155l-3.524-.7c.008-.151.023-.3.023-.452a8.307,8.307,0,0,0-7.114-8.2V4.437A11.836,11.836,0,0,1,27.494,12.509ZM15.043,4.432V8.023A8.266,8.266,0,0,0,8.2,18.291L4.878,19.67A11.869,11.869,0,0,1,15.043,4.432Z" transform="translate(-1.259 -2)" fill="#dd5456"/>
      <rect id="Rectangle_1127" data-name="Rectangle 1127" width="11.857" height="2.371" transform="translate(45.797 26.085)" fill="#f0f0f0"/>
      <rect id="Rectangle_1128" data-name="Rectangle 1128" width="11.857" height="2.371" transform="translate(45.797 21.342)" fill="#f0f0f0"/>
      <rect id="Rectangle_1129" data-name="Rectangle 1129" width="11.857" height="2.371" transform="translate(45.797 16.6)" fill="#f0f0f0"/>
      <rect id="Rectangle_1130" data-name="Rectangle 1130" width="11.857" height="2.371" transform="translate(60.026 0)" fill="#f0f0f0"/>
      <rect id="Rectangle_1131" data-name="Rectangle 1131" width="11.857" height="2.371" transform="translate(60.026 4.743)" fill="#f0f0f0"/>
      <rect id="Rectangle_1132" data-name="Rectangle 1132" width="11.857" height="2.371" transform="translate(60.026 9.486)" fill="#f0f0f0"/>
      <rect id="Rectangle_1133" data-name="Rectangle 1133" width="2.371" height="2.371" transform="translate(60.026 14.228)" fill="#f0f0f0"/>
      <rect id="Rectangle_1134" data-name="Rectangle 1134" width="2.371" height="2.371" transform="translate(64.768 14.228)" fill="#f0f0f0"/>
      <rect id="Rectangle_1135" data-name="Rectangle 1135" width="2.371" height="2.371" transform="translate(69.511 14.228)" fill="#f0f0f0"/>
    </g>
  </g>
</svg>
