<svg xmlns="http://www.w3.org/2000/svg" width="163.59" height="156.532" viewBox="0 0 163.59 156.532">
  <g id="Group_165" data-name="Group 165" transform="translate(-1664.436 -980.24)">
    <g id="noun_website_2488597" transform="translate(1659.975 921.497)">
      <g id="_27_Web_Layout" data-name="27 Web Layout" transform="translate(-4 39)">
        <path id="Path_275" data-name="Path 275" d="M157.949,19.744H22.564a14.119,14.119,0,0,0-14.1,14.1V146.667a14.119,14.119,0,0,0,14.1,14.1H157.949a14.119,14.119,0,0,0,14.1-14.1V33.846a14.12,14.12,0,0,0-14.1-14.1ZM22.564,25.385H157.949a8.462,8.462,0,0,1,8.462,8.462v8.462H14.1V33.846a8.462,8.462,0,0,1,8.462-8.462ZM157.949,155.128H22.564a8.462,8.462,0,0,1-8.462-8.462V47.949H166.41v98.718a8.462,8.462,0,0,1-8.462,8.462Z" fill="#929292"/>
        <circle id="Ellipse_268" data-name="Ellipse 268" cx="2.835" cy="2.835" r="2.835" transform="translate(19.744 31.012)" fill="#dd5456"/>
        <circle id="Ellipse_269" data-name="Ellipse 269" cx="2.835" cy="2.835" r="2.835" transform="translate(31.012 31.026)" fill="#fcbf49"/>
        <path id="Path_276" data-name="Path 276" d="M45.156,36.695a2.835,2.835,0,1,0-2.835-2.821A2.835,2.835,0,0,0,45.156,36.695Z" fill="#58989d"/>
        <path id="Path_277" data-name="Path 277" d="M101.538,126.923h19.744a2.821,2.821,0,0,0,0-5.641H101.538a2.821,2.821,0,1,0,0,5.641Z" fill="#636363"/>
        <path id="Path_278" data-name="Path 278" d="M157.949,121.282H132.564a2.821,2.821,0,1,0,0,5.641h25.385a2.821,2.821,0,0,0,0-5.641Z" fill="#636363"/>
        <path id="Path_279" data-name="Path 279" d="M101.538,93.077h16.923a2.821,2.821,0,1,0,0-5.641H101.538a2.821,2.821,0,1,0,0,5.641Z" fill="#636363"/>
        <path id="Path_280" data-name="Path 280" d="M157.949,87.436H129.744a2.821,2.821,0,1,0,0,5.641h28.205a2.821,2.821,0,1,0,0-5.641Z" fill="#636363"/>
        <path id="Path_281" data-name="Path 281" d="M157.949,98.718h-56.41a2.821,2.821,0,1,0,0,5.641h56.41a2.821,2.821,0,0,0,0-5.641Z" fill="#636363"/>
        <path id="Path_282" data-name="Path 282" d="M157.949,132.564h-56.41a2.821,2.821,0,1,0,0,5.641h56.41a2.821,2.821,0,0,0,0-5.641Z" fill="#636363"/>
        <path id="Path_283" data-name="Path 283" d="M87.436,76.154H25.385a5.641,5.641,0,0,0-5.641,5.641v62.051a5.641,5.641,0,0,0,5.641,5.641H87.436a5.641,5.641,0,0,0,5.641-5.641V81.795A5.641,5.641,0,0,0,87.436,76.154Zm0,67.692H25.385V81.795H87.436Z" fill="#1d779a"/>
        <path id="Path_284" data-name="Path 284" d="M155.128,53.59H25.385a5.641,5.641,0,0,0-5.641,5.641v5.641a5.641,5.641,0,0,0,5.641,5.641H155.128a5.641,5.641,0,0,0,5.641-5.641V59.231A5.641,5.641,0,0,0,155.128,53.59Zm0,11.282H25.385V59.231H155.128Z" fill="#58989d"/>
      </g>
    </g>
    <g id="noun_interaction_3263169" transform="translate(1679 1055.907)">
      <g id="Path_285" data-name="Path 285" transform="translate(-6.729 -17)" fill="#f0f0f0" stroke-linecap="round">
        <path d="M 75.58714294433594 95.86537933349609 L 57.36359405517578 95.86537933349609 C 52.75492858886719 95.86537933349609 48.51757431030273 93.16695404052734 46.56842803955078 88.99082183837891 C 44.36329650878906 84.26535797119141 40.92041778564453 80.21443176269531 36.612060546875 77.27613830566406 L 33.53665161132813 75.17919158935547 C 32.51447296142578 74.48255920410156 31.90442848205566 73.32803344726563 31.90442848205566 72.09059143066406 C 31.90442848205566 70.02908325195313 33.58130645751953 68.35192108154297 35.64247131347656 68.35192108154297 L 37.85074996948242 68.35192108154297 C 40.22707366943359 68.35192108154297 42.58084106445313 68.98424530029297 44.65759658813477 70.18052673339844 L 47.6558837890625 71.90764617919922 L 47.6558837890625 68.44749450683594 L 47.6558837890625 39.18752288818359 L 47.6558837890625 39.07060241699219 L 47.64451217651367 38.97416305541992 C 47.63188171386719 38.83741760253906 47.3517951965332 35.55152893066406 49.04817199707031 33.65377807617188 C 49.87121963500977 32.7330322265625 51.06414413452148 32.27148056030273 52.69383239746094 32.24356842041016 C 53.97619247436523 32.30388259887695 55.0196418762207 32.59211730957031 55.79586029052734 33.10054779052734 C 56.4068603515625 33.50075912475586 56.86849594116211 34.04231262207031 57.20711898803711 34.75615692138672 C 57.89558410644531 36.20748138427734 57.87880706787109 37.96854782104492 57.86979675292969 38.91464614868164 C 57.86886215209961 39.01277923583984 57.86802673339844 39.10276794433594 57.86787414550781 39.18376922607422 L 57.86725997924805 47.05504608154297 L 57.86702728271484 50.07883453369141 L 60.64977264404297 48.89576721191406 C 61.27948379516602 48.62804794311523 61.94877243041992 48.49230194091797 62.63906097412109 48.49230194091797 C 64.76188659667969 48.49230194091797 66.68486022949219 49.83804702758789 67.42414855957031 51.84102249145508 L 68.20400238037109 53.95390319824219 L 70.20988464355469 52.92975616455078 C 70.93643951416016 52.55880355834961 71.71241760253906 52.37071228027344 72.51624298095703 52.37071228027344 C 73.55206298828125 52.37071228027344 74.54928588867188 52.68119049072266 75.40013122558594 53.26858139038086 C 76.23440551757813 53.84453582763672 76.87467193603516 54.64401245117188 77.25169372558594 55.58058929443359 L 78.07695007324219 57.63061141967773 L 80.03472900390625 56.60552597045898 C 80.77360534667969 56.21865844726563 81.56718444824219 56.02249145507813 82.39340972900391 56.02249145507813 C 85.20920562744141 56.02249145507813 87.50001525878906 58.31302261352539 87.50001525878906 61.12847900390625 L 87.50001525878906 83.95249938964844 C 87.50001525878906 90.52127838134766 82.15591430664063 95.86537933349609 75.58714294433594 95.86537933349609 Z" stroke="none"/>
        <path d="M 52.66519927978516 34.24466705322266 C 51.1729736328125 34.28457641601563 50.70252227783203 34.80577850341797 50.54557037353516 34.97966766357422 C 49.69010925292969 35.92748260498047 49.5621337890625 37.92315673828125 49.63381195068359 38.76535797119141 L 49.65587615966797 38.93514251708984 L 49.65587615966797 39.18753051757813 L 49.65587615966797 68.44749450683594 L 49.65587615966797 75.36782836914063 L 43.65929412841797 71.91355895996094 C 41.8857421875 70.89192962646484 39.87718200683594 70.35191345214844 37.85073852539063 70.35191345214844 L 35.64246368408203 70.35191345214844 C 34.68410491943359 70.35191345214844 33.9044189453125 71.13188171386719 33.9044189453125 72.09059143066406 C 33.9044189453125 72.66600799560547 34.1878662109375 73.20270538330078 34.663330078125 73.52675628662109 L 37.73894500732422 75.62381744384766 C 42.34394073486328 78.76443481445313 46.02385711669922 83.09426879882813 48.38074493408203 88.14494323730469 C 50.00267028808594 91.61997985839844 53.52864074707031 93.86537933349609 57.36359024047852 93.86537933349609 L 75.58712768554688 93.86537933349609 C 81.05311584472656 93.86537933349609 85.50001525878906 89.41847991943359 85.50001525878906 83.95249938964844 L 85.50001525878906 61.12847900390625 C 85.50001525878906 59.41583251953125 84.10639190673828 58.02249145507813 82.39340209960938 58.02249145507813 C 81.89359283447266 58.02249145507813 81.41213989257813 58.14188385009766 80.96241760253906 58.37735748291016 L 77.04689025878906 60.42748260498047 L 75.39637756347656 56.32745361328125 C 74.91786193847656 55.13877868652344 73.78733825683594 54.37070465087891 72.51622772216797 54.37070465087891 C 72.03160095214844 54.37070465087891 71.56159973144531 54.48520660400391 71.11930847167969 54.71102905273438 L 67.10755920410156 56.75925445556641 L 65.54786682128906 52.53354644775391 C 65.09722900390625 51.31260681152344 63.92826843261719 50.49229431152344 62.63905334472656 50.49229431152344 C 62.21918106079102 50.49229431152344 61.81316757202148 50.57439422607422 61.43230438232422 50.73632049560547 L 55.86677932739258 53.10254669189453 L 55.86725616455078 47.05489349365234 L 55.86787796020508 39.18721771240234 L 55.86787796020508 39.18361663818359 L 55.86789321899414 39.18001556396484 C 55.8680419921875 39.09442138671875 55.86890411376953 38.99930572509766 55.86989212036133 38.89560699462891 C 55.87736892700195 38.11036682128906 55.89129257202148 36.64874267578125 55.40013122558594 35.61334228515625 C 55.20623779296875 35.20461273193359 54.80607604980469 34.36138153076172 52.66519927978516 34.24466705322266 M 51.63066101074219 30.24294281005859 L 53.89309692382813 30.24294281005859 L 51.63066101074219 30.24294281005859 Z M 52.72410583496094 30.24294281005859 C 60.26196670532227 30.5587158203125 59.87134170532227 37.343994140625 59.86787796020508 39.18753051757813 L 59.86725616455078 47.05520629882813 C 60.71935272216797 46.69293212890625 61.65629196166992 46.49229431152344 62.63905334472656 46.49229431152344 C 65.69510650634766 46.49229431152344 68.29907989501953 48.43553161621094 69.3004150390625 51.14849090576172 C 70.26707458496094 50.65495300292969 71.35821533203125 50.37070465087891 72.51622772216797 50.37070465087891 C 75.50044250488281 50.37070465087891 78.05550384521484 52.2216796875 79.10700988769531 54.83370971679688 C 80.09100341796875 54.31849670410156 81.20753479003906 54.02249145507813 82.39340209960938 54.02249145507813 C 86.31269073486328 54.02249145507813 89.50001525878906 57.21043395996094 89.50001525878906 61.12847900390625 L 89.50001525878906 83.95249938964844 C 89.50001525878906 91.62448120117188 83.25912475585938 97.86537933349609 75.58712768554688 97.86537933349609 L 57.36359024047852 97.86537933349609 C 51.98099517822266 97.86537933349609 47.03250122070313 94.71397399902344 44.756103515625 89.83669281005859 C 42.70264434814453 85.43623352050781 39.49672698974609 81.66432952880859 35.48517608642578 78.92844390869141 L 32.40994262695313 76.83163452148438 C 30.84074401855469 75.76217651367188 29.9044189453125 73.98924255371094 29.9044189453125 72.09059143066406 C 29.9044189453125 68.92617797851563 32.47867584228516 66.35191345214844 35.64246368408203 66.35191345214844 L 37.85073852539063 66.35191345214844 C 40.58539581298828 66.35191345214844 43.29404449462891 67.08698272705078 45.65587615966797 68.44749450683594 L 45.65587615966797 39.18753051757813 C 45.65587615966797 39.18753051757813 44.68920135498047 30.33385467529297 52.72410583496094 30.24294281005859 Z" stroke="none" fill="#1d779a"/>
      </g>
    </g>
  </g>
</svg>
